<svg xmlns="http://www.w3.org/2000/svg" viewBox="0 0 512 512">
  <defs>
    <linearGradient id="bgGrad" x1="0%" y1="0%" x2="100%" y2="100%">
      <stop offset="0%" style="stop-color:#3b82f6"/>
      <stop offset="100%" style="stop-color:#1d4ed8"/>
    </linearGradient>
  </defs>

  <!-- Full background for maskable (safe zone is 80% center) -->
  <rect width="512" height="512" fill="url(#bgGrad)"/>

  <!-- Calendar body - scaled down to fit in safe zone -->
  <g transform="translate(76, 76) scale(0.7)">
    <rect x="80" y="120" width="352" height="312" rx="24" fill="white"/>

    <!-- Calendar header -->
    <rect x="80" y="120" width="352" height="72" rx="24" fill="#1e40af"/>
    <rect x="80" y="168" width="352" height="24" fill="#1e40af"/>

    <!-- Calendar rings -->
    <rect x="140" y="96" width="20" height="56" rx="10" fill="#64748b"/>
    <rect x="352" y="96" width="20" height="56" rx="10" fill="#64748b"/>

    <!-- Calendar grid lines -->
    <line x1="80" y1="260" x2="432" y2="260" stroke="#e2e8f0" stroke-width="2"/>
    <line x1="80" y1="340" x2="432" y2="340" stroke="#e2e8f0" stroke-width="2"/>
    <line x1="197" y1="192" x2="197" y2="432" stroke="#e2e8f0" stroke-width="2"/>
    <line x1="314" y1="192" x2="314" y2="432" stroke="#e2e8f0" stroke-width="2"/>

    <!-- Check marks representing availability -->
    <circle cx="138" cy="226" r="24" fill="#22c55e"/>
    <path d="M126 226 L134 234 L150 218" stroke="white" stroke-width="4" fill="none" stroke-linecap="round" stroke-linejoin="round"/>

    <circle cx="256" cy="226" r="24" fill="#22c55e"/>
    <path d="M244 226 L252 234 L268 218" stroke="white" stroke-width="4" fill="none" stroke-linecap="round" stroke-linejoin="round"/>

    <circle cx="374" cy="300" r="24" fill="#22c55e"/>
    <path d="M362 300 L370 308 L386 292" stroke="white" stroke-width="4" fill="none" stroke-linecap="round" stroke-linejoin="round"/>

    <circle cx="138" cy="380" r="24" fill="#22c55e"/>
    <path d="M126 380 L134 388 L150 372" stroke="white" stroke-width="4" fill="none" stroke-linecap="round" stroke-linejoin="round"/>

    <!-- People icons representing group -->
    <circle cx="374" cy="370" r="16" fill="#3b82f6"/>
    <circle cx="374" cy="362" r="8" fill="white"/>
    <ellipse cx="374" cy="384" rx="12" ry="8" fill="white"/>

    <circle cx="256" cy="370" r="16" fill="#3b82f6"/>
    <circle cx="256" cy="362" r="8" fill="white"/>
    <ellipse cx="256" cy="384" rx="12" ry="8" fill="white"/>
  </g>
</svg>
